<svg xmlns="http://www.w3.org/2000/svg" xmlns:xlink="http://www.w3.org/1999/xlink" width="200" zoomAndPan="magnify" viewBox="0 0 150 37.5" height="50" preserveAspectRatio="xMidYMid meet" version="1.0"><defs><g/><clipPath id="0c5d9b9ae2"><path d="M 118.855469 0 L 145.476562 0 L 145.476562 31.085938 L 118.855469 31.085938 Z M 118.855469 0 " clip-rule="nonzero"/></clipPath><clipPath id="5dcd4d7f68"><path d="M 0.988281 11 L 19 11 L 19 30 L 0.988281 30 Z M 0.988281 11 " clip-rule="nonzero"/></clipPath></defs><g clip-path="url(#0c5d9b9ae2)"><path fill="#ffffff" d="M 122.6875 11 L 121.078125 10.644531 C 121.019531 10.628906 120.960938 10.660156 120.933594 10.714844 L 119.464844 13.816406 C 119.425781 13.898438 119.320312 13.914062 119.257812 13.851562 L 118.910156 13.503906 C 118.878906 13.472656 118.863281 13.429688 118.875 13.386719 L 119.800781 8.921875 C 119.816406 8.855469 119.875 8.8125 119.941406 8.820312 L 122.882812 9.125 C 122.925781 9.132812 122.953125 9.175781 122.933594 9.214844 C 122.699219 9.757812 122.644531 10.355469 122.765625 10.925781 C 122.777344 10.96875 122.734375 11.011719 122.6875 11 Z M 139.25 31.269531 L 129.195312 31.269531 C 128.859375 31.269531 128.582031 30.992188 128.582031 30.652344 L 128.582031 29.765625 C 128.582031 29.425781 128.859375 29.148438 129.195312 29.148438 L 139.25 29.148438 C 139.589844 29.148438 139.867188 29.425781 139.867188 29.765625 L 139.867188 30.652344 C 139.867188 30.992188 139.589844 31.269531 139.25 31.269531 Z M 137.535156 28.179688 L 137.535156 25.632812 C 137.535156 23.8125 136.042969 22.324219 134.222656 22.324219 C 132.402344 22.324219 130.914062 23.8125 130.914062 25.632812 L 130.914062 28.179688 C 130.914062 28.214844 130.941406 28.242188 130.976562 28.242188 L 137.46875 28.242188 C 137.503906 28.242188 137.535156 28.214844 137.535156 28.179688 Z M 136.28125 25.632812 C 136.28125 26.765625 135.355469 27.691406 134.222656 27.691406 C 133.089844 27.691406 132.164062 26.765625 132.164062 25.632812 C 132.164062 24.5 133.089844 23.574219 134.222656 23.574219 C 135.355469 23.574219 136.28125 24.5 136.28125 25.632812 Z M 135.378906 25.632812 C 135.378906 26.265625 134.859375 26.785156 134.222656 26.785156 C 133.589844 26.785156 133.070312 26.265625 133.070312 25.632812 C 133.070312 25 133.589844 24.476562 134.222656 24.476562 C 134.859375 24.476562 135.378906 25 135.378906 25.632812 Z M 144.175781 9.464844 C 142.882812 8.171875 140.785156 8.171875 139.492188 9.464844 C 138.199219 10.761719 138.199219 12.855469 139.492188 14.148438 C 140.785156 15.445312 142.882812 15.445312 144.175781 14.148438 C 145.46875 12.855469 145.46875 10.761719 144.175781 9.464844 Z M 143.246094 10.398438 C 144.019531 11.171875 144.019531 12.445312 143.246094 13.21875 C 142.46875 13.992188 141.199219 13.992188 140.425781 13.21875 C 139.648438 12.445312 139.648438 11.171875 140.425781 10.398438 C 141.199219 9.625 142.46875 9.625 143.246094 10.398438 Z M 142.605469 11.039062 C 143.027344 11.460938 143.027344 12.15625 142.605469 12.578125 C 142.183594 13.003906 141.488281 13.003906 141.0625 12.578125 C 140.640625 12.15625 140.640625 11.460938 141.0625 11.039062 C 141.488281 10.613281 142.183594 10.613281 142.605469 11.039062 Z M 135.332031 1.136719 C 134.191406 0 132.347656 0 131.207031 1.136719 C 130.070312 2.277344 130.070312 4.121094 131.207031 5.261719 C 132.347656 6.398438 134.191406 6.398438 135.332031 5.261719 C 136.46875 4.121094 136.46875 2.277344 135.332031 1.136719 Z M 134.546875 1.917969 C 135.25 2.621094 135.25 3.773438 134.546875 4.476562 C 133.847656 5.179688 132.691406 5.179688 131.988281 4.476562 C 131.289062 3.773438 131.289062 2.621094 131.988281 1.917969 C 132.691406 1.214844 133.847656 1.214844 134.546875 1.917969 Z M 133.910156 2.558594 C 134.261719 2.910156 134.261719 3.488281 133.910156 3.839844 C 133.558594 4.191406 132.980469 4.191406 132.628906 3.839844 C 132.277344 3.488281 132.277344 2.910156 132.628906 2.558594 C 132.980469 2.207031 133.558594 2.207031 133.910156 2.558594 Z M 126.839844 8.992188 C 126.101562 8.253906 124.902344 8.253906 124.160156 8.992188 C 123.421875 9.734375 123.421875 10.933594 124.160156 11.671875 C 124.902344 12.414062 126.101562 12.414062 126.839844 11.671875 C 127.582031 10.933594 127.582031 9.734375 126.839844 8.992188 Z M 124.832031 13.144531 L 125.191406 14.753906 C 125.203125 14.8125 125.175781 14.871094 125.121094 14.898438 L 122.019531 16.367188 C 121.9375 16.40625 121.917969 16.511719 121.980469 16.574219 L 122.332031 16.925781 C 122.363281 16.957031 122.402344 16.96875 122.449219 16.960938 L 126.914062 16.03125 C 126.980469 16.019531 127.023438 15.960938 127.015625 15.894531 L 126.707031 12.953125 C 126.703125 12.910156 126.65625 12.882812 126.617188 12.898438 C 126.078125 13.132812 125.476562 13.191406 124.910156 13.066406 C 124.863281 13.058594 124.824219 13.097656 124.832031 13.144531 Z M 133.183594 21.433594 L 138.296875 14.253906 C 138.320312 14.21875 138.375 14.21875 138.398438 14.253906 C 139.171875 15.335938 140.398438 15.988281 141.730469 16.023438 C 141.777344 16.023438 141.808594 16.070312 141.789062 16.113281 L 138.207031 23.957031 C 138.183594 24.007812 138.113281 24.007812 138.089844 23.957031 C 137.269531 22.082031 135.230469 21.0625 133.25 21.53125 C 133.191406 21.546875 133.148438 21.480469 133.183594 21.433594 Z M 137.703125 10.566406 L 134.640625 6.855469 C 134.609375 6.820312 134.625 6.769531 134.664062 6.753906 C 135.683594 6.355469 136.488281 5.527344 136.859375 4.5 C 136.875 4.457031 136.925781 4.441406 136.960938 4.472656 L 140.777344 7.621094 C 140.820312 7.65625 140.804688 7.71875 140.753906 7.734375 C 139.359375 8.101562 138.242188 9.167969 137.8125 10.542969 C 137.796875 10.59375 137.734375 10.605469 137.703125 10.566406 Z M 131.4375 6.652344 L 128.203125 9.320312 C 128.167969 9.347656 128.117188 9.335938 128.101562 9.296875 C 127.816406 8.585938 127.25 8.015625 126.539062 7.734375 C 126.496094 7.714844 126.484375 7.664062 126.511719 7.632812 L 129.445312 4.078125 C 129.480469 4.035156 129.546875 4.050781 129.558594 4.101562 C 129.8125 5.140625 130.492188 6.03125 131.429688 6.542969 C 131.46875 6.566406 131.472656 6.621094 131.4375 6.652344 Z M 131.4375 6.652344 " fill-opacity="1" fill-rule="evenodd"/></g><g clip-path="url(#5dcd4d7f68)"><path stroke-linecap="butt" transform="matrix(0.418181, 0, 0, 0.418181, 4.537014, 16.873685)" fill="none" stroke-linejoin="miter" d="M 17.74354 2.357088 C 17.74354 2.357088 17.659471 2.357088 17.491332 2.357088 L 1.882449 2.357088 C 1.71431 2.357088 1.583535 2.403793 1.480784 2.506545 C 1.387373 2.599955 1.340668 2.73073 1.340668 2.898868 L 1.340668 14.444398 C 1.340668 14.603196 1.387373 14.743311 1.480784 14.836722 C 1.583535 14.930132 1.71431 14.986179 1.882449 14.986179 L 17.491332 14.986179 C 17.659471 14.986179 17.790246 14.930132 17.883656 14.836722 C 17.977067 14.743311 18.023772 14.603196 18.023772 14.444398 L 18.023772 13.248744 C 18.023772 13.080606 17.977067 12.949831 17.883656 12.856421 C 17.790246 12.753669 17.659471 12.706964 17.491332 12.706964 L 3.638565 12.706964 L 3.638565 4.654985 L 17.491332 4.654985 C 17.659471 4.654985 17.790246 4.598938 17.883656 4.505528 C 17.977067 4.412117 18.023772 4.281343 18.023772 4.113204 L 18.023772 2.898868 C 18.023772 2.73073 17.977067 2.599955 17.883656 2.506545 C 17.790246 2.403793 17.74354 2.357088 17.74354 2.357088 Z M 17.74354 2.357088 " stroke="#ffffff" stroke-width="2.845458" stroke-opacity="1" stroke-miterlimit="4"/></g><path stroke-linecap="butt" transform="matrix(0.418181, 0, 0, 0.418181, 12.264994, 16.873685)" fill="none" stroke-linejoin="miter" d="M 1.337278 14.705947 C 1.337278 14.705947 1.383983 14.761993 1.486735 14.855404 C 1.580145 14.948814 1.71092 14.99552 1.879058 14.99552 L 17.487942 14.99552 C 17.656081 14.99552 17.786855 14.948814 17.880266 14.855404 C 17.973676 14.761993 18.029722 14.621878 18.029722 14.453739 L 18.029722 13.248744 C 18.029722 13.080606 17.973676 12.949831 17.880266 12.856421 C 17.786855 12.753669 17.656081 12.706964 17.487942 12.706964 L 3.635175 12.706964 L 3.635175 2.898868 C 3.635175 2.73073 3.588469 2.599955 3.485718 2.506545 C 3.392307 2.403793 3.261533 2.357088 3.093394 2.357088 L 1.879058 2.357088 C 1.71092 2.357088 1.580145 2.403793 1.486735 2.506545 C 1.383983 2.599955 1.337278 2.73073 1.337278 2.898868 L 1.337278 14.453739 C 1.337278 14.621878 1.337278 14.705947 1.337278 14.705947 Z M 1.337278 14.705947 " stroke="#ffffff" stroke-width="2.845458" stroke-opacity="1" stroke-miterlimit="4"/><path stroke-linecap="butt" transform="matrix(0.418181, 0, 0, 0.418181, 19.992978, 16.873685)" fill="none" stroke-linejoin="miter" d="M 3.631777 2.64666 C 3.631777 2.64666 3.585071 2.599955 3.491661 2.506545 C 3.388909 2.403793 3.258135 2.357088 3.089996 2.357088 L 1.885001 2.357088 C 1.716863 2.357088 1.576747 2.403793 1.483337 2.506545 C 1.389926 2.599955 1.343221 2.73073 1.343221 2.898868 L 1.343221 12.361345 C 1.343221 12.529484 1.389926 12.660259 1.483337 12.76301 C 1.576747 12.856421 1.716863 12.903126 1.885001 12.903126 L 2.781742 12.903126 C 2.94988 12.903126 3.099337 12.968513 3.220771 13.089947 C 3.342204 13.21138 3.39825 13.351496 3.39825 13.519635 L 3.39825 14.453739 C 3.39825 14.621878 3.444956 14.761993 3.538366 14.855404 C 3.641118 14.948814 3.771892 14.99552 3.940031 14.99552 L 15.448196 14.99552 C 15.616335 14.99552 15.74711 14.948814 15.84052 14.855404 C 15.943272 14.761993 15.989977 14.621878 15.989977 14.453739 L 15.989977 13.519635 C 15.989977 13.351496 16.046023 13.21138 16.158116 13.089947 C 16.270208 12.968513 16.410324 12.903126 16.587804 12.903126 L 17.484544 12.903126 C 17.652683 12.903126 17.783457 12.856421 17.876868 12.76301 C 17.979619 12.660259 18.026324 12.529484 18.026324 12.361345 L 18.026324 2.898868 C 18.026324 2.73073 17.979619 2.599955 17.876868 2.506545 C 17.783457 2.403793 17.652683 2.357088 17.484544 2.357088 L 16.279549 2.357088 C 16.11141 2.357088 15.971295 2.403793 15.877884 2.506545 C 15.784474 2.599955 15.728428 2.73073 15.728428 2.898868 L 15.728428 12.071773 C 15.728428 12.239912 15.672381 12.389368 15.560289 12.510802 C 15.448196 12.632236 15.308081 12.688282 15.139942 12.688282 L 4.248285 12.688282 C 4.080147 12.688282 3.940031 12.632236 3.818597 12.510802 C 3.697164 12.389368 3.631777 12.239912 3.631777 12.071773 L 3.631777 2.898868 C 3.631777 2.73073 3.631777 2.64666 3.631777 2.64666 Z M 3.631777 2.64666 " stroke="#ffffff" stroke-width="2.845458" stroke-opacity="1" stroke-miterlimit="4"/><path stroke-linecap="butt" transform="matrix(0.418181, 0, 0, 0.418181, 27.720961, 16.873685)" fill="none" stroke-linejoin="miter" d="M 16.005261 8.297991 C 16.005261 8.297991 16.08933 8.204581 16.26681 8.027101 C 16.44429 7.849621 16.659134 7.756211 16.911342 7.756211 L 17.490487 7.756211 C 17.658626 7.756211 17.7894 7.709506 17.882811 7.616095 C 17.976221 7.513344 18.022926 7.382569 18.022926 7.21443 L 18.022926 2.898868 C 18.022926 2.73073 17.976221 2.599955 17.882811 2.506545 C 17.7894 2.403793 17.658626 2.357088 17.490487 2.357088 L 1.881603 2.357088 C 1.713465 2.357088 1.58269 2.403793 1.479938 2.506545 C 1.386528 2.599955 1.339823 2.73073 1.339823 2.898868 L 1.339823 14.453739 C 1.339823 14.621878 1.386528 14.761993 1.479938 14.855404 C 1.58269 14.948814 1.713465 14.99552 1.881603 14.99552 L 17.490487 14.99552 C 17.658626 14.99552 17.7894 14.948814 17.882811 14.855404 C 17.976221 14.761993 18.022926 14.621878 18.022926 14.453739 L 18.022926 10.119495 C 18.022926 9.951356 17.976221 9.820582 17.882811 9.727171 C 17.7894 9.633761 17.658626 9.577714 17.490487 9.577714 L 16.911342 9.577714 C 16.659134 9.577714 16.44429 9.493645 16.26681 9.325506 C 16.08933 9.148026 16.005261 8.933182 16.005261 8.680974 C 16.005261 8.428766 16.005261 8.297991 16.005261 8.297991 Z M 15.771735 12.706964 L 3.63772 12.706964 L 3.63772 9.81124 L 14.865654 9.81124 C 15.117862 9.81124 15.332706 9.904651 15.510186 10.091472 C 15.678324 10.268952 15.771735 10.483796 15.771735 10.736004 Z M 15.248636 7.522685 C 15.248636 7.522685 15.117862 7.522685 14.865654 7.522685 L 3.63772 7.522685 L 3.63772 4.654985 L 15.771735 4.654985 L 15.771735 6.616604 C 15.771735 6.868812 15.687665 7.083656 15.519527 7.251795 C 15.342047 7.429274 15.248636 7.522685 15.248636 7.522685 Z M 15.248636 7.522685 " stroke="#ffffff" stroke-width="2.845458" stroke-opacity="1" stroke-miterlimit="4"/><path stroke-linecap="butt" transform="matrix(0.418181, 0, 0, 0.418181, 39.312935, 16.873685)" fill="none" stroke-linejoin="miter" d="M 1.88585 2.310383 C 1.717711 2.310383 1.577595 2.357088 1.484185 2.450498 C 1.390775 2.543909 1.344069 2.674683 1.344069 2.842822 L 1.344069 14.444398 C 1.344069 14.603196 1.390775 14.743311 1.484185 14.836722 C 1.577595 14.930132 1.717711 14.986179 1.88585 14.986179 L 15.430363 14.99552 C 15.598502 14.99552 15.729276 14.948814 15.822687 14.855404 C 15.925438 14.761993 15.972143 14.621878 15.972143 14.453739 L 15.972143 13.594363 C 15.972143 13.426224 16.02819 13.276768 16.149623 13.155334 C 16.271057 13.0339 16.411172 12.977854 16.579311 12.977854 L 17.485392 12.977854 C 17.653531 12.977854 17.784306 12.931149 17.877716 12.837739 C 17.980468 12.734987 18.027173 12.604212 18.027173 12.436074 L 18.027173 4.916534 C 18.027173 4.757736 17.980468 4.61762 17.877716 4.52421 C 17.784306 4.430799 17.653531 4.384094 17.485392 4.384094 L 16.579311 4.384094 C 16.411172 4.384094 16.271057 4.318707 16.149623 4.197273 C 16.02819 4.085181 15.972143 3.935724 15.972143 3.767585 L 15.972143 2.898868 C 15.972143 2.73073 15.925438 2.599955 15.822687 2.506545 C 15.729276 2.403793 15.598502 2.357088 15.430363 2.357088 Z M 15.729276 4.944557 C 15.729276 4.944557 15.729276 5.028626 15.729276 5.196765 L 15.729276 12.127819 C 15.729276 12.295958 15.67323 12.445415 15.551796 12.557507 C 15.430363 12.678941 15.290247 12.744328 15.122108 12.744328 L 4.249134 12.744328 C 4.080995 12.744328 3.931538 12.678941 3.819446 12.557507 C 3.698012 12.445415 3.632625 12.295958 3.632625 12.127819 L 3.632625 5.196765 C 3.632625 5.028626 3.698012 4.87917 3.819446 4.757736 C 3.931538 4.645643 4.080995 4.580256 4.249134 4.580256 L 15.122108 4.580256 C 15.290247 4.580256 15.430363 4.645643 15.551796 4.757736 C 15.67323 4.87917 15.729276 4.944557 15.729276 4.944557 Z M 15.729276 4.944557 " stroke="#ffffff" stroke-width="2.845458" stroke-opacity="1" stroke-miterlimit="4"/><path stroke-linecap="butt" transform="matrix(0.418181, 0, 0, 0.418181, 47.040918, 16.873685)" fill="none" stroke-linejoin="miter" d="M 1.882454 9.559032 C 1.714315 9.559032 1.583541 9.615079 1.480789 9.708489 C 1.387379 9.801899 1.340674 9.942015 1.340674 10.110154 L 1.340674 14.453739 C 1.340674 14.621878 1.387379 14.761993 1.480789 14.855404 C 1.583541 14.948814 1.714315 14.99552 1.882454 14.99552 L 17.491338 14.99552 C 17.659476 14.99552 17.790251 14.948814 17.883661 14.855404 C 17.977072 14.761993 18.023777 14.621878 18.023777 14.453739 L 18.023777 13.267427 C 18.023777 13.099288 17.977072 12.968513 17.883661 12.865762 C 17.790251 12.772351 17.659476 12.725646 17.491338 12.725646 L 3.63857 12.725646 L 3.63857 10.717322 C 3.63857 10.465114 3.72264 10.25027 3.890778 10.07279 C 4.068258 9.885969 4.283102 9.792558 4.53531 9.792558 L 15.408285 9.792558 C 15.576424 9.792558 15.707198 9.745853 15.800609 9.652443 C 15.90336 9.559032 15.950065 9.428258 15.950065 9.250778 L 15.950065 8.045783 C 15.950065 7.877644 15.90336 7.74687 15.800609 7.653459 C 15.707198 7.550708 15.576424 7.504003 15.408285 7.504003 L 4.53531 7.504003 C 4.283102 7.504003 4.068258 7.419933 3.890778 7.242454 C 3.72264 7.064974 3.63857 6.85013 3.63857 6.597922 L 3.63857 4.636302 L 17.491338 4.636302 C 17.659476 4.636302 17.790251 4.589597 17.883661 4.486846 C 17.977072 4.393435 18.023777 4.262661 18.023777 4.094522 L 18.023777 2.898868 C 18.023777 2.73073 17.977072 2.599955 17.883661 2.506545 C 17.790251 2.403793 17.659476 2.357088 17.491338 2.357088 L 1.882454 2.357088 C 1.714315 2.357088 1.583541 2.403793 1.480789 2.506545 C 1.387379 2.599955 1.340674 2.73073 1.340674 2.898868 L 1.340674 7.195748 C 1.340674 7.363887 1.387379 7.504003 1.480789 7.597413 C 1.583541 7.690824 1.714315 7.737529 1.882454 7.737529 L 2.480281 7.737529 C 2.732489 7.737529 2.947333 7.830939 3.124813 8.008419 C 3.311634 8.19524 3.405044 8.410084 3.405044 8.662292 C 3.405044 8.9145 3.311634 9.129344 3.124813 9.306824 C 2.947333 9.474963 2.732489 9.559032 2.480281 9.559032 Z M 1.882454 9.559032 " stroke="#ffffff" stroke-width="2.845458" stroke-opacity="1" stroke-miterlimit="4"/><path stroke-linecap="butt" transform="matrix(0.418181, 0, 0, 0.418181, 58.632891, 16.873685)" fill="none" stroke-linejoin="miter" d="M 15.767493 10.231587 C 15.767493 10.231587 15.767493 10.399726 15.767493 10.736004 L 15.767493 14.453739 C 15.767493 14.621878 15.814198 14.761993 15.91695 14.855404 C 16.01036 14.948814 16.141135 14.99552 16.309273 14.99552 L 17.486245 14.99552 C 17.654384 14.99552 17.785158 14.948814 17.878569 14.855404 C 17.98132 14.761993 18.028025 14.621878 18.028025 14.453739 L 18.028025 10.138177 C 18.028025 9.970038 17.98132 9.839264 17.878569 9.745853 C 17.785158 9.643102 17.654384 9.596396 17.486245 9.596396 L 16.9071 9.596396 C 16.654892 9.596396 16.440048 9.502986 16.262568 9.306824 C 16.094429 9.101321 16.01036 8.877136 16.01036 8.624928 C 16.01036 8.37272 16.094429 8.167217 16.262568 8.008419 C 16.440048 7.858962 16.654892 7.774893 16.9071 7.774893 L 17.486245 7.774893 C 17.654384 7.774893 17.785158 7.728188 17.878569 7.634777 C 17.98132 7.532026 18.028025 7.401251 18.028025 7.233112 L 18.028025 2.898868 C 18.028025 2.73073 17.98132 2.599955 17.878569 2.506545 C 17.785158 2.403793 17.654384 2.357088 17.486245 2.357088 L 1.886702 2.357088 C 1.709223 2.357088 1.578448 2.403793 1.485038 2.506545 C 1.391627 2.599955 1.344922 2.73073 1.344922 2.898868 L 1.344922 14.453739 C 1.344922 14.621878 1.391627 14.761993 1.485038 14.855404 C 1.578448 14.948814 1.709223 14.99552 1.886702 14.99552 L 3.091697 14.99552 C 3.259836 14.99552 3.39061 14.948814 3.484021 14.855404 C 3.586772 14.761993 3.633477 14.621878 3.633477 14.453739 L 3.633477 9.839264 L 14.870753 9.839264 C 15.244394 9.839264 15.487262 9.904651 15.608695 10.035426 C 15.711447 10.1662 15.767493 10.231587 15.767493 10.231587 Z M 15.431215 7.541367 C 15.431215 7.541367 15.244394 7.541367 14.870753 7.541367 L 3.633477 7.541367 L 3.633477 4.654985 L 15.767493 4.654985 L 15.767493 6.616604 C 15.767493 6.906176 15.711447 7.130361 15.608695 7.289159 C 15.487262 7.457298 15.431215 7.541367 15.431215 7.541367 Z M 15.431215 7.541367 " stroke="#ffffff" stroke-width="2.845458" stroke-opacity="1" stroke-miterlimit="4"/><path stroke-linecap="butt" transform="matrix(0.418181, 0, 0, 0.418181, 66.360876, 16.873685)" fill="none" stroke-linejoin="miter" d="M 15.427814 14.99552 C 15.595953 14.99552 15.726728 14.948814 15.829479 14.855404 C 15.92289 14.761993 15.969595 14.621878 15.969595 14.453739 L 15.969595 13.594363 C 15.969595 13.426224 16.025641 13.276768 16.147075 13.155334 C 16.268508 13.0339 16.417965 12.977854 16.586104 12.977854 L 17.492185 12.977854 C 17.650983 12.977854 17.781757 12.931149 17.884509 12.837739 C 17.977919 12.734987 18.024624 12.604212 18.024624 12.436074 L 18.024624 5.028626 C 18.024624 4.860487 17.977919 4.729713 17.884509 4.636302 C 17.781757 4.533551 17.650983 4.486846 17.492185 4.486846 L 16.586104 4.486846 C 16.417965 4.486846 16.268508 4.430799 16.147075 4.309366 C 16.025641 4.187932 15.969595 4.047817 15.969595 3.879678 L 15.969595 2.898868 C 15.969595 2.73073 15.92289 2.599955 15.829479 2.506545 C 15.726728 2.403793 15.595953 2.357088 15.427814 2.357088 L 3.938331 2.357088 C 3.770192 2.357088 3.639418 2.403793 3.546007 2.506545 C 3.443256 2.599955 3.396551 2.73073 3.396551 2.898868 L 3.396551 3.860996 C 3.396551 4.029135 3.340504 4.16925 3.219071 4.290684 C 3.097637 4.412117 2.957521 4.468164 2.780042 4.468164 L 1.883302 4.468164 C 1.715163 4.468164 1.575047 4.514869 1.481637 4.61762 C 1.388226 4.711031 1.341521 4.841805 1.341521 5.009944 L 1.341521 12.436074 C 1.341521 12.604212 1.388226 12.734987 1.481637 12.837739 C 1.575047 12.931149 1.715163 12.977854 1.883302 12.977854 L 2.780042 12.977854 C 2.957521 12.977854 3.097637 13.0339 3.219071 13.155334 C 3.340504 13.276768 3.396551 13.426224 3.396551 13.594363 L 3.396551 14.453739 C 3.396551 14.621878 3.443256 14.761993 3.546007 14.855404 C 3.639418 14.948814 3.770192 14.99552 3.938331 14.99552 Z M 3.994377 4.683008 C 3.994377 4.683008 4.078447 4.683008 4.246585 4.683008 L 15.11956 4.683008 C 15.287699 4.683008 15.427814 4.748395 15.549248 4.869829 C 15.670682 4.991262 15.736069 5.131378 15.736069 5.299517 L 15.736069 12.127819 C 15.736069 12.295958 15.670682 12.445415 15.549248 12.557507 C 15.427814 12.678941 15.287699 12.744328 15.11956 12.744328 L 4.246585 12.744328 C 4.078447 12.744328 3.938331 12.678941 3.816897 12.557507 C 3.695464 12.445415 3.630077 12.295958 3.630077 12.127819 L 3.630077 5.299517 C 3.630077 5.131378 3.695464 4.991262 3.816897 4.869829 C 3.938331 4.748395 3.994377 4.683008 3.994377 4.683008 Z M 3.994377 4.683008 " stroke="#ffffff" stroke-width="2.845458" stroke-opacity="1" stroke-miterlimit="4"/><path stroke-linecap="butt" transform="matrix(0.418181, 0, 0, 0.418181, 74.088861, 16.873685)" fill="none" stroke-linejoin="miter" d="M 16.003558 8.297991 C 16.003558 8.297991 16.096969 8.204581 16.265107 8.027101 C 16.442587 7.849621 16.657431 7.756211 16.909639 7.756211 L 17.488784 7.756211 C 17.656923 7.756211 17.787698 7.709506 17.881108 7.616095 C 17.974518 7.513344 18.021224 7.382569 18.021224 7.21443 L 18.021224 2.898868 C 18.021224 2.73073 17.974518 2.599955 17.881108 2.506545 C 17.787698 2.403793 17.656923 2.357088 17.488784 2.357088 L 1.879901 2.357088 C 1.711762 2.357088 1.580987 2.403793 1.478236 2.506545 C 1.384825 2.599955 1.33812 2.73073 1.33812 2.898868 L 1.33812 14.453739 C 1.33812 14.621878 1.384825 14.761993 1.478236 14.855404 C 1.580987 14.948814 1.711762 14.99552 1.879901 14.99552 L 17.488784 14.99552 C 17.656923 14.99552 17.787698 14.948814 17.881108 14.855404 C 17.974518 14.761993 18.021224 14.621878 18.021224 14.453739 L 18.021224 10.119495 C 18.021224 9.951356 17.974518 9.820582 17.881108 9.727171 C 17.787698 9.633761 17.656923 9.577714 17.488784 9.577714 L 16.909639 9.577714 C 16.657431 9.577714 16.442587 9.493645 16.265107 9.325506 C 16.096969 9.148026 16.003558 8.933182 16.003558 8.680974 C 16.003558 8.428766 16.003558 8.297991 16.003558 8.297991 Z M 15.770032 12.706964 L 3.636017 12.706964 L 3.636017 9.81124 L 14.873292 9.81124 C 15.1255 9.81124 15.331003 9.904651 15.508483 10.091472 C 15.685963 10.268952 15.770032 10.483796 15.770032 10.736004 Z M 15.246934 7.522685 C 15.246934 7.522685 15.1255 7.522685 14.873292 7.522685 L 3.636017 7.522685 L 3.636017 4.654985 L 15.770032 4.654985 L 15.770032 6.616604 C 15.770032 6.868812 15.685963 7.083656 15.517824 7.251795 C 15.340344 7.429274 15.246934 7.522685 15.246934 7.522685 Z M 15.246934 7.522685 " stroke="#ffffff" stroke-width="2.845458" stroke-opacity="1" stroke-miterlimit="4"/><path stroke-linecap="butt" transform="matrix(0.418181, 0, 0, 0.418181, 81.816841, 16.873685)" fill="none" stroke-linejoin="miter" d="M 1.344072 12.436074 C 1.344072 12.604212 1.390777 12.734987 1.484187 12.837739 C 1.577598 12.931149 1.717713 12.977854 1.885852 12.977854 L 2.782592 12.977854 C 2.950731 12.977854 3.100188 13.0339 3.221621 13.155334 C 3.343055 13.276768 3.399101 13.426224 3.399101 13.594363 L 3.399101 14.453739 C 3.399101 14.621878 3.445806 14.761993 3.539217 14.855404 C 3.641968 14.948814 3.772743 14.99552 3.940882 14.99552 L 15.449047 14.99552 C 15.617186 14.99552 15.747961 14.948814 15.841371 14.855404 C 15.944122 14.761993 15.990828 14.621878 15.990828 14.453739 L 15.990828 13.594363 C 15.990828 13.426224 16.046874 13.276768 16.158966 13.155334 C 16.271059 13.0339 16.411175 12.977854 16.579313 12.977854 L 17.485395 12.977854 C 17.653533 12.977854 17.784308 12.931149 17.877718 12.837739 C 17.98047 12.734987 18.027175 12.604212 18.027175 12.436074 L 18.027175 5.028626 C 18.027175 4.860487 17.98047 4.729713 17.877718 4.636302 C 17.784308 4.533551 17.653533 4.486846 17.485395 4.486846 L 16.579313 4.486846 C 16.411175 4.486846 16.271059 4.430799 16.149625 4.309366 C 16.028192 4.187932 15.972146 4.047817 15.972146 3.879678 L 15.972146 2.898868 C 15.972146 2.73073 15.92544 2.599955 15.822689 2.506545 C 15.729278 2.403793 15.598504 2.357088 15.430365 2.357088 L 3.940882 2.357088 C 3.772743 2.357088 3.641968 2.403793 3.539217 2.506545 C 3.445806 2.599955 3.399101 2.73073 3.399101 2.898868 L 3.399101 3.842314 C 3.399101 4.010453 3.343055 4.150568 3.221621 4.272002 C 3.100188 4.393435 2.950731 4.449482 2.782592 4.449482 L 1.885852 4.449482 C 1.717713 4.449482 1.577598 4.505528 1.484187 4.598938 C 1.390777 4.692349 1.344072 4.823123 1.344072 4.991262 Z M 3.996928 4.683008 C 3.996928 4.683008 4.080997 4.683008 4.249136 4.683008 L 15.122111 4.683008 C 15.290249 4.683008 15.430365 4.748395 15.551799 4.869829 C 15.673232 4.991262 15.729278 5.131378 15.729278 5.299517 L 15.729278 12.127819 C 15.729278 12.295958 15.673232 12.445415 15.551799 12.557507 C 15.430365 12.678941 15.290249 12.744328 15.122111 12.744328 L 4.249136 12.744328 C 4.080997 12.744328 3.931541 12.678941 3.819448 12.557507 C 3.698015 12.445415 3.632627 12.295958 3.632627 12.127819 L 3.632627 5.299517 C 3.632627 5.131378 3.698015 4.991262 3.819448 4.869829 C 3.931541 4.748395 3.996928 4.683008 3.996928 4.683008 Z M 7.518501 0.927908 C 7.518501 1.105388 7.565207 1.236163 7.658617 1.329573 C 7.761368 1.422983 7.892143 1.469689 8.060282 1.469689 L 9.265276 1.469689 C 9.433415 1.469689 9.573531 1.422983 9.666941 1.329573 C 9.760352 1.236163 9.807057 1.105388 9.807057 0.927908 L 9.807057 0.339422 C 9.807057 0.0778732 9.900467 -0.136971 10.068606 -0.314451 C 10.246086 -0.49193 10.46093 -0.585341 10.713138 -0.585341 L 11.310965 -0.585341 C 11.479104 -0.585341 11.609878 -0.632046 11.703289 -0.725456 C 11.80604 -0.828208 11.852745 -0.958983 11.852745 -1.127121 L 11.852745 -2.341457 C 11.852745 -2.500255 11.80604 -2.64037 11.703289 -2.733781 C 11.609878 -2.827191 11.479104 -2.883238 11.310965 -2.883238 L 10.115311 -2.883238 C 9.947173 -2.883238 9.816398 -2.827191 9.722988 -2.733781 C 9.620236 -2.64037 9.573531 -2.500255 9.573531 -2.341457 L 9.573531 -1.724948 C 9.573531 -1.47274 9.489461 -1.257896 9.302641 -1.071075 C 9.125161 -0.893595 8.910317 -0.800185 8.658109 -0.800185 L 8.060282 -0.800185 C 7.892143 -0.800185 7.761368 -0.75348 7.658617 -0.660069 C 7.565207 -0.557318 7.518501 -0.426543 7.518501 -0.258404 Z M 7.518501 0.927908 " stroke="#ffffff" stroke-width="2.845458" stroke-opacity="1" stroke-miterlimit="4"/><path stroke-linecap="butt" transform="matrix(0.418181, 0, 0, 0.418181, 89.544825, 16.873685)" fill="none" stroke-linejoin="miter" d="M 1.882451 2.357088 C 1.714313 2.357088 1.583538 2.403793 1.480786 2.506545 C 1.387376 2.599955 1.340671 2.73073 1.340671 2.898868 L 1.340671 4.113204 C 1.340671 4.281343 1.387376 4.412117 1.480786 4.505528 C 1.583538 4.598938 1.714313 4.654985 1.882451 4.654985 L 8.523933 4.654985 L 8.523933 14.453739 C 8.523933 14.621878 8.579979 14.761993 8.67339 14.855404 C 8.7668 14.948814 8.906916 14.99552 9.075055 14.99552 L 10.280049 14.99552 C 10.448188 14.99552 10.578963 14.948814 10.672373 14.855404 C 10.775125 14.761993 10.82183 14.621878 10.82183 14.453739 L 10.82183 4.654985 L 17.491335 4.654985 C 17.659474 4.654985 17.790248 4.598938 17.883659 4.505528 C 17.977069 4.412117 18.023774 4.281343 18.023774 4.113204 L 18.023774 2.898868 C 18.023774 2.73073 17.977069 2.599955 17.883659 2.506545 C 17.790248 2.403793 17.659474 2.357088 17.491335 2.357088 Z M 1.882451 2.357088 " stroke="#ffffff" stroke-width="2.845458" stroke-opacity="1" stroke-miterlimit="4"/><path stroke-linecap="butt" transform="matrix(0.418181, 0, 0, 0.418181, 97.27281, 16.873685)" fill="none" stroke-linejoin="miter" d="M 1.87905 12.725646 C 1.710912 12.725646 1.580137 12.772351 1.486727 12.865762 C 1.383975 12.968513 1.33727 13.099288 1.33727 13.267427 L 1.33727 14.453739 C 1.33727 14.621878 1.383975 14.761993 1.486727 14.855404 C 1.580137 14.948814 1.710912 14.99552 1.87905 14.99552 L 8.240301 14.99552 C 8.40844 14.99552 8.539214 14.948814 8.632625 14.855404 C 8.735376 14.761993 8.782081 14.621878 8.782081 14.453739 L 8.782081 13.865253 C 8.782081 13.613045 8.866151 13.398201 9.043631 13.220721 C 9.211769 13.043241 9.426613 12.959172 9.688163 12.959172 C 9.940371 12.959172 10.155215 13.043241 10.332695 13.220721 C 10.510175 13.398201 10.603585 13.613045 10.603585 13.865253 L 10.603585 14.453739 C 10.603585 14.621878 10.65029 14.761993 10.753042 14.855404 C 10.846452 14.948814 10.977227 14.99552 11.145365 14.99552 L 17.487934 14.99552 C 17.656073 14.99552 17.786847 14.948814 17.880258 14.855404 C 17.973668 14.761993 18.029714 14.621878 18.029714 14.453739 L 18.029714 13.267427 C 18.029714 13.099288 17.973668 12.968513 17.880258 12.865762 C 17.786847 12.772351 17.656073 12.725646 17.487934 12.725646 L 11.743192 12.725646 C 11.490984 12.725646 11.27614 12.632236 11.09866 12.454756 C 10.92118 12.277276 10.837111 12.053091 10.837111 11.800883 L 10.837111 5.551725 C 10.837111 5.299517 10.92118 5.094014 11.09866 4.916534 C 11.27614 4.739054 11.490984 4.654985 11.743192 4.654985 L 17.487934 4.654985 C 17.656073 4.654985 17.786847 4.598938 17.880258 4.505528 C 17.973668 4.412117 18.029714 4.281343 18.029714 4.113204 L 18.029714 2.898868 C 18.029714 2.73073 17.973668 2.599955 17.880258 2.506545 C 17.786847 2.403793 17.656073 2.357088 17.487934 2.357088 L 11.145365 2.357088 C 10.977227 2.357088 10.846452 2.403793 10.753042 2.506545 C 10.65029 2.599955 10.603585 2.73073 10.603585 2.898868 L 10.603585 3.496695 C 10.603585 3.748903 10.510175 3.963747 10.332695 4.150568 C 10.155215 4.328048 9.940371 4.421458 9.688163 4.421458 C 9.426613 4.421458 9.211769 4.328048 9.043631 4.150568 C 8.866151 3.963747 8.782081 3.748903 8.782081 3.496695 L 8.782081 2.898868 C 8.782081 2.73073 8.735376 2.599955 8.632625 2.506545 C 8.539214 2.403793 8.40844 2.357088 8.240301 2.357088 L 1.87905 2.357088 C 1.710912 2.357088 1.580137 2.403793 1.486727 2.506545 C 1.383975 2.599955 1.33727 2.73073 1.33727 2.898868 L 1.33727 4.113204 C 1.33727 4.281343 1.383975 4.412117 1.486727 4.505528 C 1.580137 4.598938 1.710912 4.654985 1.87905 4.654985 L 7.623792 4.654985 C 7.876 4.654985 8.090844 4.739054 8.268324 4.916534 C 8.455145 5.094014 8.548555 5.299517 8.548555 5.551725 L 8.548555 11.800883 C 8.548555 12.053091 8.455145 12.277276 8.268324 12.454756 C 8.090844 12.632236 7.876 12.725646 7.623792 12.725646 Z M 1.87905 12.725646 " stroke="#ffffff" stroke-width="2.845458" stroke-opacity="1" stroke-miterlimit="4"/><path stroke-linecap="butt" transform="matrix(0.418181, 0, 0, 0.418181, 105.000788, 16.873685)" fill="none" stroke-linejoin="miter" d="M 17.736758 2.357088 C 17.736758 2.357088 17.652689 2.357088 17.48455 2.357088 L 1.885008 2.357088 C 1.716869 2.357088 1.576753 2.403793 1.483343 2.506545 C 1.389932 2.599955 1.343227 2.73073 1.343227 2.898868 L 1.343227 14.444398 C 1.343227 14.603196 1.389932 14.743311 1.483343 14.836722 C 1.576753 14.930132 1.716869 14.986179 1.885008 14.986179 L 17.48455 14.986179 C 17.652689 14.986179 17.783463 14.930132 17.876874 14.836722 C 17.979625 14.743311 18.026331 14.603196 18.026331 14.444398 L 18.026331 13.248744 C 18.026331 13.080606 17.979625 12.949831 17.876874 12.856421 C 17.783463 12.753669 17.652689 12.706964 17.48455 12.706964 L 3.631783 12.706964 L 3.631783 4.654985 L 17.48455 4.654985 C 17.652689 4.654985 17.783463 4.598938 17.876874 4.505528 C 17.979625 4.412117 18.026331 4.281343 18.026331 4.113204 L 18.026331 2.898868 C 18.026331 2.73073 17.979625 2.599955 17.886215 2.506545 C 17.783463 2.403793 17.736758 2.357088 17.736758 2.357088 Z M 17.736758 2.357088 " stroke="#ffffff" stroke-width="2.845458" stroke-opacity="1" stroke-miterlimit="4"/><g fill="#061a1e" fill-opacity="1"><g transform="translate(4.719968, 23.146405)"><g><path d="M 7.234375 -5.28125 C 7.234375 -5.28125 7.195312 -5.28125 7.125 -5.28125 L 0.609375 -5.28125 C 0.535156 -5.28125 0.476562 -5.257812 0.4375 -5.21875 C 0.394531 -5.175781 0.375 -5.125 0.375 -5.0625 L 0.375 -0.234375 C 0.375 -0.160156 0.394531 -0.101562 0.4375 -0.0625 C 0.476562 -0.0195312 0.535156 0 0.609375 0 L 7.125 0 C 7.195312 0 7.25 -0.0195312 7.28125 -0.0625 C 7.320312 -0.101562 7.34375 -0.160156 7.34375 -0.234375 L 7.34375 -0.734375 C 7.34375 -0.804688 7.320312 -0.859375 7.28125 -0.890625 C 7.25 -0.929688 7.195312 -0.953125 7.125 -0.953125 L 1.328125 -0.953125 L 1.328125 -4.328125 L 7.125 -4.328125 C 7.195312 -4.328125 7.25 -4.34375 7.28125 -4.375 C 7.320312 -4.414062 7.34375 -4.472656 7.34375 -4.546875 L 7.34375 -5.0625 C 7.34375 -5.125 7.328125 -5.175781 7.296875 -5.21875 C 7.253906 -5.257812 7.234375 -5.28125 7.234375 -5.28125 Z M 7.234375 -5.28125 "/></g></g></g><g fill="#061a1e" fill-opacity="1"><g transform="translate(12.447948, 23.146405)"><g><path d="M 0.375 -0.125 C 0.375 -0.125 0.394531 -0.101562 0.4375 -0.0625 C 0.476562 -0.0195312 0.535156 0 0.609375 0 L 7.125 0 C 7.195312 0 7.25 -0.0195312 7.28125 -0.0625 C 7.320312 -0.101562 7.34375 -0.15625 7.34375 -0.21875 L 7.34375 -0.734375 C 7.34375 -0.804688 7.320312 -0.859375 7.28125 -0.890625 C 7.25 -0.929688 7.195312 -0.953125 7.125 -0.953125 L 1.328125 -0.953125 L 1.328125 -5.0625 C 1.328125 -5.125 1.304688 -5.175781 1.265625 -5.21875 C 1.234375 -5.257812 1.179688 -5.28125 1.109375 -5.28125 L 0.609375 -5.28125 C 0.535156 -5.28125 0.476562 -5.257812 0.4375 -5.21875 C 0.394531 -5.175781 0.375 -5.125 0.375 -5.0625 L 0.375 -0.21875 C 0.375 -0.15625 0.375 -0.125 0.375 -0.125 Z M 0.375 -0.125 "/></g></g></g><g fill="#061a1e" fill-opacity="1"><g transform="translate(20.175932, 23.146405)"><g><path d="M 1.328125 -5.15625 C 1.328125 -5.15625 1.304688 -5.175781 1.265625 -5.21875 C 1.234375 -5.257812 1.179688 -5.28125 1.109375 -5.28125 L 0.609375 -5.28125 C 0.535156 -5.28125 0.476562 -5.257812 0.4375 -5.21875 C 0.394531 -5.175781 0.375 -5.125 0.375 -5.0625 L 0.375 -1.109375 C 0.375 -1.035156 0.394531 -0.976562 0.4375 -0.9375 C 0.476562 -0.894531 0.535156 -0.875 0.609375 -0.875 L 0.984375 -0.875 C 1.054688 -0.875 1.113281 -0.847656 1.15625 -0.796875 C 1.207031 -0.742188 1.234375 -0.6875 1.234375 -0.625 L 1.234375 -0.21875 C 1.234375 -0.15625 1.253906 -0.101562 1.296875 -0.0625 C 1.335938 -0.0195312 1.394531 0 1.46875 0 L 6.265625 0 C 6.335938 0 6.394531 -0.0195312 6.4375 -0.0625 C 6.476562 -0.101562 6.5 -0.15625 6.5 -0.21875 L 6.5 -0.625 C 6.5 -0.6875 6.519531 -0.742188 6.5625 -0.796875 C 6.613281 -0.847656 6.675781 -0.875 6.75 -0.875 L 7.125 -0.875 C 7.195312 -0.875 7.25 -0.894531 7.28125 -0.9375 C 7.320312 -0.976562 7.34375 -1.035156 7.34375 -1.109375 L 7.34375 -5.0625 C 7.34375 -5.125 7.320312 -5.175781 7.28125 -5.21875 C 7.25 -5.257812 7.195312 -5.28125 7.125 -5.28125 L 6.625 -5.28125 C 6.550781 -5.28125 6.492188 -5.257812 6.453125 -5.21875 C 6.410156 -5.175781 6.390625 -5.125 6.390625 -5.0625 L 6.390625 -1.21875 C 6.390625 -1.144531 6.363281 -1.082031 6.3125 -1.03125 C 6.269531 -0.988281 6.210938 -0.96875 6.140625 -0.96875 L 1.59375 -0.96875 C 1.519531 -0.96875 1.457031 -0.988281 1.40625 -1.03125 C 1.351562 -1.082031 1.328125 -1.144531 1.328125 -1.21875 L 1.328125 -5.0625 C 1.328125 -5.125 1.328125 -5.15625 1.328125 -5.15625 Z M 1.328125 -5.15625 "/></g></g></g><g fill="#061a1e" fill-opacity="1"><g transform="translate(27.903915, 23.146405)"><g><path d="M 6.5 -2.796875 C 6.5 -2.796875 6.535156 -2.832031 6.609375 -2.90625 C 6.679688 -2.988281 6.769531 -3.03125 6.875 -3.03125 L 7.125 -3.03125 C 7.195312 -3.03125 7.25 -3.046875 7.28125 -3.078125 C 7.320312 -3.117188 7.34375 -3.175781 7.34375 -3.25 L 7.34375 -5.0625 C 7.34375 -5.125 7.320312 -5.175781 7.28125 -5.21875 C 7.25 -5.257812 7.195312 -5.28125 7.125 -5.28125 L 0.609375 -5.28125 C 0.535156 -5.28125 0.476562 -5.257812 0.4375 -5.21875 C 0.394531 -5.175781 0.375 -5.125 0.375 -5.0625 L 0.375 -0.21875 C 0.375 -0.15625 0.394531 -0.101562 0.4375 -0.0625 C 0.476562 -0.0195312 0.535156 0 0.609375 0 L 7.125 0 C 7.195312 0 7.25 -0.0195312 7.28125 -0.0625 C 7.320312 -0.101562 7.34375 -0.15625 7.34375 -0.21875 L 7.34375 -2.03125 C 7.34375 -2.101562 7.320312 -2.160156 7.28125 -2.203125 C 7.25 -2.242188 7.195312 -2.265625 7.125 -2.265625 L 6.875 -2.265625 C 6.769531 -2.265625 6.679688 -2.300781 6.609375 -2.375 C 6.535156 -2.445312 6.5 -2.535156 6.5 -2.640625 C 6.5 -2.742188 6.5 -2.796875 6.5 -2.796875 Z M 6.40625 -0.953125 L 1.328125 -0.953125 L 1.328125 -2.171875 L 6.03125 -2.171875 C 6.132812 -2.171875 6.222656 -2.128906 6.296875 -2.046875 C 6.367188 -1.972656 6.40625 -1.882812 6.40625 -1.78125 Z M 6.1875 -3.125 C 6.1875 -3.125 6.132812 -3.125 6.03125 -3.125 L 1.328125 -3.125 L 1.328125 -4.328125 L 6.40625 -4.328125 L 6.40625 -3.5 C 6.40625 -3.394531 6.367188 -3.304688 6.296875 -3.234375 C 6.222656 -3.160156 6.1875 -3.125 6.1875 -3.125 Z M 6.1875 -3.125 "/></g></g></g><g fill="#061a1e" fill-opacity="1"><g transform="translate(35.631897, 23.146405)"><g/></g></g><g fill="#061a1e" fill-opacity="1"><g transform="translate(39.49589, 23.146405)"><g><path d="M 0.609375 -5.3125 C 0.535156 -5.3125 0.476562 -5.289062 0.4375 -5.25 C 0.394531 -5.207031 0.375 -5.148438 0.375 -5.078125 L 0.375 -0.234375 C 0.375 -0.160156 0.394531 -0.101562 0.4375 -0.0625 C 0.476562 -0.0195312 0.535156 0 0.609375 0 L 6.265625 0 C 6.335938 0 6.390625 -0.0195312 6.421875 -0.0625 C 6.460938 -0.101562 6.484375 -0.15625 6.484375 -0.21875 L 6.484375 -0.59375 C 6.484375 -0.65625 6.507812 -0.710938 6.5625 -0.765625 C 6.613281 -0.816406 6.675781 -0.84375 6.75 -0.84375 L 7.125 -0.84375 C 7.195312 -0.84375 7.25 -0.863281 7.28125 -0.90625 C 7.320312 -0.945312 7.34375 -1.003906 7.34375 -1.078125 L 7.34375 -4.21875 C 7.34375 -4.28125 7.320312 -4.332031 7.28125 -4.375 C 7.25 -4.414062 7.195312 -4.4375 7.125 -4.4375 L 6.75 -4.4375 C 6.675781 -4.4375 6.613281 -4.460938 6.5625 -4.515625 C 6.507812 -4.566406 6.484375 -4.625 6.484375 -4.6875 L 6.484375 -5.0625 C 6.484375 -5.125 6.460938 -5.175781 6.421875 -5.21875 C 6.390625 -5.257812 6.335938 -5.28125 6.265625 -5.28125 Z M 6.390625 -4.203125 C 6.390625 -4.203125 6.390625 -4.164062 6.390625 -4.09375 L 6.390625 -1.203125 C 6.390625 -1.128906 6.363281 -1.066406 6.3125 -1.015625 C 6.257812 -0.960938 6.203125 -0.9375 6.140625 -0.9375 L 1.59375 -0.9375 C 1.519531 -0.9375 1.457031 -0.960938 1.40625 -1.015625 C 1.351562 -1.066406 1.328125 -1.128906 1.328125 -1.203125 L 1.328125 -4.09375 C 1.328125 -4.164062 1.351562 -4.226562 1.40625 -4.28125 C 1.457031 -4.332031 1.519531 -4.359375 1.59375 -4.359375 L 6.140625 -4.359375 C 6.203125 -4.359375 6.257812 -4.332031 6.3125 -4.28125 C 6.363281 -4.226562 6.390625 -4.203125 6.390625 -4.203125 Z M 6.390625 -4.203125 "/></g></g></g><g fill="#061a1e" fill-opacity="1"><g transform="translate(47.223872, 23.146405)"><g><path d="M 0.609375 -2.265625 C 0.535156 -2.265625 0.476562 -2.242188 0.4375 -2.203125 C 0.394531 -2.171875 0.375 -2.117188 0.375 -2.046875 L 0.375 -0.21875 C 0.375 -0.15625 0.394531 -0.101562 0.4375 -0.0625 C 0.476562 -0.0195312 0.535156 0 0.609375 0 L 7.125 0 C 7.195312 0 7.25 -0.0195312 7.28125 -0.0625 C 7.320312 -0.101562 7.34375 -0.15625 7.34375 -0.21875 L 7.34375 -0.71875 C 7.34375 -0.789062 7.320312 -0.847656 7.28125 -0.890625 C 7.25 -0.929688 7.195312 -0.953125 7.125 -0.953125 L 1.328125 -0.953125 L 1.328125 -1.78125 C 1.328125 -1.894531 1.363281 -1.988281 1.4375 -2.0625 C 1.507812 -2.132812 1.601562 -2.171875 1.71875 -2.171875 L 6.25 -2.171875 C 6.320312 -2.171875 6.378906 -2.191406 6.421875 -2.234375 C 6.460938 -2.273438 6.484375 -2.332031 6.484375 -2.40625 L 6.484375 -2.90625 C 6.484375 -2.976562 6.460938 -3.03125 6.421875 -3.0625 C 6.378906 -3.101562 6.320312 -3.125 6.25 -3.125 L 1.71875 -3.125 C 1.601562 -3.125 1.507812 -3.160156 1.4375 -3.234375 C 1.363281 -3.304688 1.328125 -3.398438 1.328125 -3.515625 L 1.328125 -4.328125 L 7.125 -4.328125 C 7.195312 -4.328125 7.25 -4.347656 7.28125 -4.390625 C 7.320312 -4.429688 7.34375 -4.488281 7.34375 -4.5625 L 7.34375 -5.0625 C 7.34375 -5.125 7.320312 -5.175781 7.28125 -5.21875 C 7.25 -5.257812 7.195312 -5.28125 7.125 -5.28125 L 0.609375 -5.28125 C 0.535156 -5.28125 0.476562 -5.257812 0.4375 -5.21875 C 0.394531 -5.175781 0.375 -5.125 0.375 -5.0625 L 0.375 -3.265625 C 0.375 -3.191406 0.394531 -3.132812 0.4375 -3.09375 C 0.476562 -3.050781 0.535156 -3.03125 0.609375 -3.03125 L 0.859375 -3.03125 C 0.960938 -3.03125 1.050781 -2.992188 1.125 -2.921875 C 1.195312 -2.847656 1.234375 -2.757812 1.234375 -2.65625 C 1.234375 -2.539062 1.195312 -2.445312 1.125 -2.375 C 1.050781 -2.300781 0.960938 -2.265625 0.859375 -2.265625 Z M 0.609375 -2.265625 "/></g></g></g><g fill="#061a1e" fill-opacity="1"><g transform="translate(54.951857, 23.146405)"><g/></g></g><g fill="#061a1e" fill-opacity="1"><g transform="translate(58.815846, 23.146405)"><g><path d="M 6.40625 -2 C 6.40625 -2 6.40625 -1.925781 6.40625 -1.78125 L 6.40625 -0.21875 C 6.40625 -0.15625 6.425781 -0.101562 6.46875 -0.0625 C 6.507812 -0.0195312 6.566406 0 6.640625 0 L 7.125 0 C 7.195312 0 7.25 -0.0195312 7.28125 -0.0625 C 7.320312 -0.101562 7.34375 -0.15625 7.34375 -0.21875 L 7.34375 -2.03125 C 7.34375 -2.101562 7.320312 -2.15625 7.28125 -2.1875 C 7.25 -2.226562 7.195312 -2.25 7.125 -2.25 L 6.875 -2.25 C 6.769531 -2.25 6.679688 -2.289062 6.609375 -2.375 C 6.535156 -2.457031 6.5 -2.550781 6.5 -2.65625 C 6.5 -2.769531 6.535156 -2.859375 6.609375 -2.921875 C 6.679688 -2.984375 6.769531 -3.015625 6.875 -3.015625 L 7.125 -3.015625 C 7.195312 -3.015625 7.25 -3.035156 7.28125 -3.078125 C 7.320312 -3.117188 7.34375 -3.175781 7.34375 -3.25 L 7.34375 -5.0625 C 7.34375 -5.125 7.320312 -5.175781 7.28125 -5.21875 C 7.25 -5.257812 7.195312 -5.28125 7.125 -5.28125 L 0.609375 -5.28125 C 0.535156 -5.28125 0.476562 -5.257812 0.4375 -5.21875 C 0.394531 -5.175781 0.375 -5.125 0.375 -5.0625 L 0.375 -0.21875 C 0.375 -0.15625 0.394531 -0.101562 0.4375 -0.0625 C 0.476562 -0.0195312 0.535156 0 0.609375 0 L 1.109375 0 C 1.179688 0 1.234375 -0.0195312 1.265625 -0.0625 C 1.304688 -0.101562 1.328125 -0.15625 1.328125 -0.21875 L 1.328125 -2.15625 L 6.03125 -2.15625 C 6.1875 -2.15625 6.289062 -2.128906 6.34375 -2.078125 C 6.382812 -2.023438 6.40625 -2 6.40625 -2 Z M 6.265625 -3.109375 C 6.265625 -3.109375 6.1875 -3.109375 6.03125 -3.109375 L 1.328125 -3.109375 L 1.328125 -4.328125 L 6.40625 -4.328125 L 6.40625 -3.5 C 6.40625 -3.382812 6.382812 -3.289062 6.34375 -3.21875 C 6.289062 -3.144531 6.265625 -3.109375 6.265625 -3.109375 Z M 6.265625 -3.109375 "/></g></g></g><g fill="#061a1e" fill-opacity="1"><g transform="translate(66.54383, 23.146405)"><g><path d="M 6.265625 0 C 6.335938 0 6.390625 -0.0195312 6.421875 -0.0625 C 6.460938 -0.101562 6.484375 -0.15625 6.484375 -0.21875 L 6.484375 -0.59375 C 6.484375 -0.65625 6.507812 -0.710938 6.5625 -0.765625 C 6.613281 -0.816406 6.675781 -0.84375 6.75 -0.84375 L 7.125 -0.84375 C 7.195312 -0.84375 7.25 -0.863281 7.28125 -0.90625 C 7.320312 -0.945312 7.34375 -1.003906 7.34375 -1.078125 L 7.34375 -4.171875 C 7.34375 -4.234375 7.320312 -4.285156 7.28125 -4.328125 C 7.25 -4.367188 7.195312 -4.390625 7.125 -4.390625 L 6.75 -4.390625 C 6.675781 -4.390625 6.613281 -4.414062 6.5625 -4.46875 C 6.507812 -4.519531 6.484375 -4.582031 6.484375 -4.65625 L 6.484375 -5.0625 C 6.484375 -5.125 6.460938 -5.175781 6.421875 -5.21875 C 6.390625 -5.257812 6.335938 -5.28125 6.265625 -5.28125 L 1.46875 -5.28125 C 1.394531 -5.28125 1.335938 -5.257812 1.296875 -5.21875 C 1.253906 -5.175781 1.234375 -5.125 1.234375 -5.0625 L 1.234375 -4.65625 C 1.234375 -4.582031 1.207031 -4.519531 1.15625 -4.46875 C 1.113281 -4.425781 1.054688 -4.40625 0.984375 -4.40625 L 0.609375 -4.40625 C 0.535156 -4.40625 0.476562 -4.382812 0.4375 -4.34375 C 0.394531 -4.300781 0.375 -4.242188 0.375 -4.171875 L 0.375 -1.078125 C 0.375 -1.003906 0.394531 -0.945312 0.4375 -0.90625 C 0.476562 -0.863281 0.535156 -0.84375 0.609375 -0.84375 L 0.984375 -0.84375 C 1.054688 -0.84375 1.113281 -0.816406 1.15625 -0.765625 C 1.207031 -0.710938 1.234375 -0.65625 1.234375 -0.59375 L 1.234375 -0.21875 C 1.234375 -0.15625 1.253906 -0.101562 1.296875 -0.0625 C 1.335938 -0.0195312 1.394531 0 1.46875 0 Z M 1.484375 -4.3125 C 1.484375 -4.3125 1.519531 -4.3125 1.59375 -4.3125 L 6.140625 -4.3125 C 6.203125 -4.3125 6.257812 -4.285156 6.3125 -4.234375 C 6.363281 -4.179688 6.390625 -4.117188 6.390625 -4.046875 L 6.390625 -1.203125 C 6.390625 -1.128906 6.363281 -1.066406 6.3125 -1.015625 C 6.257812 -0.960938 6.203125 -0.9375 6.140625 -0.9375 L 1.59375 -0.9375 C 1.519531 -0.9375 1.457031 -0.960938 1.40625 -1.015625 C 1.351562 -1.066406 1.328125 -1.128906 1.328125 -1.203125 L 1.328125 -4.046875 C 1.328125 -4.117188 1.351562 -4.179688 1.40625 -4.234375 C 1.457031 -4.285156 1.484375 -4.3125 1.484375 -4.3125 Z M 1.484375 -4.3125 "/></g></g></g><g fill="#061a1e" fill-opacity="1"><g transform="translate(74.271815, 23.146405)"><g><path d="M 6.5 -2.796875 C 6.5 -2.796875 6.535156 -2.832031 6.609375 -2.90625 C 6.679688 -2.988281 6.769531 -3.03125 6.875 -3.03125 L 7.125 -3.03125 C 7.195312 -3.03125 7.25 -3.046875 7.28125 -3.078125 C 7.320312 -3.117188 7.34375 -3.175781 7.34375 -3.25 L 7.34375 -5.0625 C 7.34375 -5.125 7.320312 -5.175781 7.28125 -5.21875 C 7.25 -5.257812 7.195312 -5.28125 7.125 -5.28125 L 0.609375 -5.28125 C 0.535156 -5.28125 0.476562 -5.257812 0.4375 -5.21875 C 0.394531 -5.175781 0.375 -5.125 0.375 -5.0625 L 0.375 -0.21875 C 0.375 -0.15625 0.394531 -0.101562 0.4375 -0.0625 C 0.476562 -0.0195312 0.535156 0 0.609375 0 L 7.125 0 C 7.195312 0 7.25 -0.0195312 7.28125 -0.0625 C 7.320312 -0.101562 7.34375 -0.15625 7.34375 -0.21875 L 7.34375 -2.03125 C 7.34375 -2.101562 7.320312 -2.160156 7.28125 -2.203125 C 7.25 -2.242188 7.195312 -2.265625 7.125 -2.265625 L 6.875 -2.265625 C 6.769531 -2.265625 6.679688 -2.300781 6.609375 -2.375 C 6.535156 -2.445312 6.5 -2.535156 6.5 -2.640625 C 6.5 -2.742188 6.5 -2.796875 6.5 -2.796875 Z M 6.40625 -0.953125 L 1.328125 -0.953125 L 1.328125 -2.171875 L 6.03125 -2.171875 C 6.132812 -2.171875 6.222656 -2.128906 6.296875 -2.046875 C 6.367188 -1.972656 6.40625 -1.882812 6.40625 -1.78125 Z M 6.1875 -3.125 C 6.1875 -3.125 6.132812 -3.125 6.03125 -3.125 L 1.328125 -3.125 L 1.328125 -4.328125 L 6.40625 -4.328125 L 6.40625 -3.5 C 6.40625 -3.394531 6.367188 -3.304688 6.296875 -3.234375 C 6.222656 -3.160156 6.1875 -3.125 6.1875 -3.125 Z M 6.1875 -3.125 "/></g></g></g><g fill="#061a1e" fill-opacity="1"><g transform="translate(81.999795, 23.146405)"><g><path d="M 0.375 -1.078125 C 0.375 -1.003906 0.394531 -0.945312 0.4375 -0.90625 C 0.476562 -0.863281 0.535156 -0.84375 0.609375 -0.84375 L 0.984375 -0.84375 C 1.054688 -0.84375 1.113281 -0.816406 1.15625 -0.765625 C 1.207031 -0.710938 1.234375 -0.65625 1.234375 -0.59375 L 1.234375 -0.21875 C 1.234375 -0.15625 1.253906 -0.101562 1.296875 -0.0625 C 1.335938 -0.0195312 1.394531 0 1.46875 0 L 6.265625 0 C 6.335938 0 6.394531 -0.0195312 6.4375 -0.0625 C 6.476562 -0.101562 6.5 -0.15625 6.5 -0.21875 L 6.5 -0.59375 C 6.5 -0.65625 6.519531 -0.710938 6.5625 -0.765625 C 6.613281 -0.816406 6.675781 -0.84375 6.75 -0.84375 L 7.125 -0.84375 C 7.195312 -0.84375 7.25 -0.863281 7.28125 -0.90625 C 7.320312 -0.945312 7.34375 -1.003906 7.34375 -1.078125 L 7.34375 -4.171875 C 7.34375 -4.234375 7.320312 -4.285156 7.28125 -4.328125 C 7.25 -4.367188 7.195312 -4.390625 7.125 -4.390625 L 6.75 -4.390625 C 6.675781 -4.390625 6.613281 -4.414062 6.5625 -4.46875 C 6.507812 -4.519531 6.484375 -4.582031 6.484375 -4.65625 L 6.484375 -5.0625 C 6.484375 -5.125 6.460938 -5.175781 6.421875 -5.21875 C 6.390625 -5.257812 6.335938 -5.28125 6.265625 -5.28125 L 1.46875 -5.28125 C 1.394531 -5.28125 1.335938 -5.257812 1.296875 -5.21875 C 1.253906 -5.175781 1.234375 -5.125 1.234375 -5.0625 L 1.234375 -4.65625 C 1.234375 -4.59375 1.207031 -4.535156 1.15625 -4.484375 C 1.113281 -4.429688 1.054688 -4.40625 0.984375 -4.40625 L 0.609375 -4.40625 C 0.535156 -4.40625 0.476562 -4.382812 0.4375 -4.34375 C 0.394531 -4.300781 0.375 -4.25 0.375 -4.1875 Z M 1.484375 -4.3125 C 1.484375 -4.3125 1.519531 -4.3125 1.59375 -4.3125 L 6.140625 -4.3125 C 6.203125 -4.3125 6.257812 -4.285156 6.3125 -4.234375 C 6.363281 -4.179688 6.390625 -4.117188 6.390625 -4.046875 L 6.390625 -1.203125 C 6.390625 -1.128906 6.363281 -1.066406 6.3125 -1.015625 C 6.257812 -0.960938 6.203125 -0.9375 6.140625 -0.9375 L 1.59375 -0.9375 C 1.519531 -0.9375 1.457031 -0.960938 1.40625 -1.015625 C 1.351562 -1.066406 1.328125 -1.128906 1.328125 -1.203125 L 1.328125 -4.046875 C 1.328125 -4.117188 1.351562 -4.179688 1.40625 -4.234375 C 1.457031 -4.285156 1.484375 -4.3125 1.484375 -4.3125 Z M 2.953125 -5.875 C 2.953125 -5.800781 2.972656 -5.742188 3.015625 -5.703125 C 3.054688 -5.671875 3.113281 -5.65625 3.1875 -5.65625 L 3.6875 -5.65625 C 3.757812 -5.65625 3.816406 -5.671875 3.859375 -5.703125 C 3.898438 -5.742188 3.921875 -5.800781 3.921875 -5.875 L 3.921875 -6.125 C 3.921875 -6.226562 3.957031 -6.316406 4.03125 -6.390625 C 4.101562 -6.472656 4.191406 -6.515625 4.296875 -6.515625 L 4.546875 -6.515625 C 4.617188 -6.515625 4.671875 -6.535156 4.703125 -6.578125 C 4.742188 -6.617188 4.765625 -6.671875 4.765625 -6.734375 L 4.765625 -7.25 C 4.765625 -7.3125 4.742188 -7.363281 4.703125 -7.40625 C 4.671875 -7.445312 4.617188 -7.46875 4.546875 -7.46875 L 4.046875 -7.46875 C 3.972656 -7.46875 3.914062 -7.445312 3.875 -7.40625 C 3.832031 -7.363281 3.8125 -7.3125 3.8125 -7.25 L 3.8125 -6.984375 C 3.8125 -6.878906 3.773438 -6.789062 3.703125 -6.71875 C 3.628906 -6.644531 3.539062 -6.609375 3.4375 -6.609375 L 3.1875 -6.609375 C 3.113281 -6.609375 3.054688 -6.585938 3.015625 -6.546875 C 2.972656 -6.503906 2.953125 -6.445312 2.953125 -6.375 Z M 2.953125 -5.875 "/></g></g></g><g fill="#061a1e" fill-opacity="1"><g transform="translate(89.72778, 23.146405)"><g><path d="M 0.609375 -5.28125 C 0.535156 -5.28125 0.476562 -5.257812 0.4375 -5.21875 C 0.394531 -5.175781 0.375 -5.125 0.375 -5.0625 L 0.375 -4.546875 C 0.375 -4.472656 0.394531 -4.414062 0.4375 -4.375 C 0.476562 -4.34375 0.535156 -4.328125 0.609375 -4.328125 L 3.375 -4.328125 L 3.375 -0.21875 C 3.375 -0.15625 3.394531 -0.101562 3.4375 -0.0625 C 3.476562 -0.0195312 3.535156 0 3.609375 0 L 4.109375 0 C 4.179688 0 4.238281 -0.0195312 4.28125 -0.0625 C 4.320312 -0.101562 4.34375 -0.15625 4.34375 -0.21875 L 4.34375 -4.328125 L 7.125 -4.328125 C 7.195312 -4.328125 7.25 -4.34375 7.28125 -4.375 C 7.320312 -4.414062 7.34375 -4.472656 7.34375 -4.546875 L 7.34375 -5.0625 C 7.34375 -5.125 7.320312 -5.175781 7.28125 -5.21875 C 7.25 -5.257812 7.195312 -5.28125 7.125 -5.28125 Z M 0.609375 -5.28125 "/></g></g></g><g fill="#061a1e" fill-opacity="1"><g transform="translate(97.455764, 23.146405)"><g><path d="M 0.609375 -0.953125 C 0.535156 -0.953125 0.476562 -0.929688 0.4375 -0.890625 C 0.394531 -0.847656 0.375 -0.789062 0.375 -0.71875 L 0.375 -0.21875 C 0.375 -0.15625 0.394531 -0.101562 0.4375 -0.0625 C 0.476562 -0.0195312 0.535156 0 0.609375 0 L 3.265625 0 C 3.328125 0 3.378906 -0.0195312 3.421875 -0.0625 C 3.460938 -0.101562 3.484375 -0.15625 3.484375 -0.21875 L 3.484375 -0.46875 C 3.484375 -0.582031 3.519531 -0.675781 3.59375 -0.75 C 3.664062 -0.820312 3.753906 -0.859375 3.859375 -0.859375 C 3.960938 -0.859375 4.050781 -0.820312 4.125 -0.75 C 4.207031 -0.675781 4.25 -0.582031 4.25 -0.46875 L 4.25 -0.21875 C 4.25 -0.15625 4.269531 -0.101562 4.3125 -0.0625 C 4.351562 -0.0195312 4.40625 0 4.46875 0 L 7.125 0 C 7.195312 0 7.25 -0.0195312 7.28125 -0.0625 C 7.320312 -0.101562 7.34375 -0.15625 7.34375 -0.21875 L 7.34375 -0.71875 C 7.34375 -0.789062 7.320312 -0.847656 7.28125 -0.890625 C 7.25 -0.929688 7.195312 -0.953125 7.125 -0.953125 L 4.71875 -0.953125 C 4.613281 -0.953125 4.523438 -0.988281 4.453125 -1.0625 C 4.378906 -1.132812 4.34375 -1.222656 4.34375 -1.328125 L 4.34375 -3.953125 C 4.34375 -4.054688 4.378906 -4.144531 4.453125 -4.21875 C 4.523438 -4.289062 4.613281 -4.328125 4.71875 -4.328125 L 7.125 -4.328125 C 7.195312 -4.328125 7.25 -4.34375 7.28125 -4.375 C 7.320312 -4.414062 7.34375 -4.472656 7.34375 -4.546875 L 7.34375 -5.0625 C 7.34375 -5.125 7.320312 -5.175781 7.28125 -5.21875 C 7.25 -5.257812 7.195312 -5.28125 7.125 -5.28125 L 4.46875 -5.28125 C 4.40625 -5.28125 4.351562 -5.257812 4.3125 -5.21875 C 4.269531 -5.175781 4.25 -5.125 4.25 -5.0625 L 4.25 -4.8125 C 4.25 -4.707031 4.207031 -4.613281 4.125 -4.53125 C 4.050781 -4.457031 3.960938 -4.421875 3.859375 -4.421875 C 3.753906 -4.421875 3.664062 -4.457031 3.59375 -4.53125 C 3.519531 -4.613281 3.484375 -4.707031 3.484375 -4.8125 L 3.484375 -5.0625 C 3.484375 -5.125 3.460938 -5.175781 3.421875 -5.21875 C 3.378906 -5.257812 3.328125 -5.28125 3.265625 -5.28125 L 0.609375 -5.28125 C 0.535156 -5.28125 0.476562 -5.257812 0.4375 -5.21875 C 0.394531 -5.175781 0.375 -5.125 0.375 -5.0625 L 0.375 -4.546875 C 0.375 -4.472656 0.394531 -4.414062 0.4375 -4.375 C 0.476562 -4.34375 0.535156 -4.328125 0.609375 -4.328125 L 3 -4.328125 C 3.101562 -4.328125 3.191406 -4.289062 3.265625 -4.21875 C 3.347656 -4.144531 3.390625 -4.054688 3.390625 -3.953125 L 3.390625 -1.328125 C 3.390625 -1.222656 3.347656 -1.132812 3.265625 -1.0625 C 3.191406 -0.988281 3.101562 -0.953125 3 -0.953125 Z M 0.609375 -0.953125 "/></g></g></g><g fill="#061a1e" fill-opacity="1"><g transform="translate(105.183742, 23.146405)"><g><path d="M 7.234375 -5.28125 C 7.234375 -5.28125 7.195312 -5.28125 7.125 -5.28125 L 0.609375 -5.28125 C 0.535156 -5.28125 0.476562 -5.257812 0.4375 -5.21875 C 0.394531 -5.175781 0.375 -5.125 0.375 -5.0625 L 0.375 -0.234375 C 0.375 -0.160156 0.394531 -0.101562 0.4375 -0.0625 C 0.476562 -0.0195312 0.535156 0 0.609375 0 L 7.125 0 C 7.195312 0 7.25 -0.0195312 7.28125 -0.0625 C 7.320312 -0.101562 7.34375 -0.160156 7.34375 -0.234375 L 7.34375 -0.734375 C 7.34375 -0.804688 7.320312 -0.859375 7.28125 -0.890625 C 7.25 -0.929688 7.195312 -0.953125 7.125 -0.953125 L 1.328125 -0.953125 L 1.328125 -4.328125 L 7.125 -4.328125 C 7.195312 -4.328125 7.25 -4.34375 7.28125 -4.375 C 7.320312 -4.414062 7.34375 -4.472656 7.34375 -4.546875 L 7.34375 -5.0625 C 7.34375 -5.125 7.328125 -5.175781 7.296875 -5.21875 C 7.253906 -5.257812 7.234375 -5.28125 7.234375 -5.28125 Z M 7.234375 -5.28125 "/></g></g></g><path stroke-linecap="butt" transform="matrix(0.665016, 0.251864, -0.251864, 0.665016, 116.483222, 12.253772)" fill="none" stroke-linejoin="miter" d="M 0.742792 9.804401 C 0.742792 9.804401 0.773768 9.83966 0.833774 9.905043 C 0.898917 9.96848 0.9871 9.999695 1.098323 9.998688 L 1.903271 9.999271 C 2.014494 9.998264 2.10377 9.970327 2.167207 9.905183 C 2.230644 9.84004 2.266996 9.749911 2.265989 9.638688 L 2.263079 6.978905 C 2.265264 6.860599 2.306753 6.768525 2.383655 6.692408 C 2.463749 6.609208 2.559408 6.567105 2.672577 6.571236 C 2.7838 6.570229 2.881012 6.609773 2.964211 6.689867 C 3.040328 6.766769 3.082431 6.862428 3.083438 6.973651 L 3.083487 7.578646 C 3.084494 7.689869 3.112431 7.779145 3.177575 7.842582 C 3.240772 7.900881 3.328955 7.932097 3.442124 7.936227 L 9.126883 7.93307 C 9.240051 7.9372 9.327381 7.904126 9.390818 7.838982 C 9.456201 7.778976 9.487416 7.690793 9.491546 7.577624 L 9.488306 6.979712 C 9.49049 6.861406 9.53198 6.769332 9.606937 6.688078 C 9.688976 6.610015 9.784635 6.567912 9.895858 6.566905 C 10.009027 6.571036 10.106238 6.61058 10.182355 6.687482 C 10.265555 6.767576 10.302521 6.86518 10.303527 6.976403 L 10.301301 9.638132 C 10.302307 9.749356 10.335382 9.836686 10.402471 9.90526 C 10.467614 9.968696 10.55066 10.001857 10.661883 10.000851 L 11.471968 9.999488 C 11.583191 9.998481 11.665384 9.967352 11.728821 9.902209 C 11.792258 9.837066 11.825419 9.754019 11.829549 9.640851 L 11.828517 6.768895 C 11.82751 6.657672 11.794435 6.570342 11.729292 6.506905 C 11.669286 6.441522 11.581103 6.410307 11.46988 6.411314 L 10.870022 6.409418 C 10.753661 6.41237 10.661587 6.37088 10.578388 6.290787 C 10.500325 6.208747 10.460167 6.118225 10.464298 6.005057 L 10.460272 5.560164 C 10.462064 5.518367 10.45039 5.487545 10.423306 5.462559 L 7.976043 3.017791 C 7.971453 2.99016 7.943122 2.977394 7.891052 2.979493 L 7.446159 2.98352 C 7.33299 2.979389 7.240916 2.9379 7.159662 2.862943 C 7.081599 2.780904 7.039496 2.685245 7.038489 2.574022 L 7.041631 1.961944 C 7.038679 1.845584 7.005604 1.758254 6.942407 1.699954 C 6.882401 1.634572 6.792272 1.598219 6.681049 1.599226 L 5.876101 1.598643 C 5.764878 1.59965 5.677548 1.632725 5.614111 1.697868 C 5.548728 1.757874 5.517513 1.846057 5.513383 1.959226 L 5.517323 2.574495 C 5.51833 2.685718 5.478786 2.78293 5.401884 2.859047 C 5.326927 2.940301 5.231268 2.982404 5.120045 2.98341 L 4.678344 2.980354 C 4.636547 2.978562 4.605725 2.990235 4.580739 3.01732 L 2.1443 5.455554 C 2.122506 5.475556 2.10974 5.503887 2.109193 5.533463 L 2.110728 6.002796 C 2.111735 6.114019 2.072191 6.21123 1.990151 6.289293 C 1.910057 6.372492 1.812453 6.409458 1.70123 6.410465 L 1.101372 6.408569 C 0.990149 6.409575 0.897682 6.444596 0.834245 6.509739 C 0.770808 6.574882 0.739593 6.663065 0.740599 6.774288 L 0.739686 9.641107 C 0.740693 9.75233 0.742792 9.804401 0.742792 9.804401 Z M 3.930236 5.812969 C 3.930236 5.812969 3.96355 5.776856 4.028933 5.71685 L 5.685528 4.073253 L 5.68384 3.556987 C 5.693107 3.441873 5.734596 3.349799 5.811499 3.273682 C 5.888401 3.197565 5.978923 3.157407 6.092092 3.161538 L 6.467557 3.16031 C 6.578781 3.159304 6.675992 3.198847 6.752109 3.27575 C 6.833363 3.350707 6.873521 3.441228 6.874527 3.552451 L 6.872324 4.058443 L 8.528141 5.716283 C 8.593284 5.77972 8.632742 5.852885 8.649706 5.928695 C 8.663478 6.011588 8.656003 6.084906 8.618951 6.157678 C 8.588982 6.233641 8.540956 6.292948 8.476819 6.340734 C 8.41782 6.386575 8.338818 6.410622 8.239815 6.412874 L 4.316026 6.412845 C 4.227296 6.411206 4.153278 6.386374 4.088835 6.340294 C 4.024391 6.294214 3.976605 6.230078 3.94423 6.160104 C 3.909909 6.084994 3.905165 6.01043 3.920969 5.928083 C 3.926499 5.849628 3.930236 5.812969 3.930236 5.812969 Z M 3.930236 5.812969 " stroke="#ffffff" stroke-width="1.89" stroke-opacity="1" stroke-miterlimit="4"/><g fill="#061a1e" fill-opacity="1"><g transform="translate(114.058098, 18.93935)"><g><path d="M 0.4375 0.03125 C 0.4375 0.03125 0.453125 0.0546875 0.484375 0.109375 C 0.515625 0.171875 0.566406 0.21875 0.640625 0.25 L 1.171875 0.4375 C 1.242188 0.46875 1.3125 0.46875 1.375 0.4375 C 1.4375 0.414062 1.484375 0.367188 1.515625 0.296875 L 2.1875 -1.484375 C 2.207031 -1.554688 2.253906 -1.609375 2.328125 -1.640625 C 2.398438 -1.671875 2.472656 -1.671875 2.546875 -1.640625 C 2.617188 -1.609375 2.671875 -1.554688 2.703125 -1.484375 C 2.734375 -1.421875 2.738281 -1.351562 2.71875 -1.28125 L 2.5625 -0.875 C 2.53125 -0.800781 2.53125 -0.734375 2.5625 -0.671875 C 2.59375 -0.609375 2.640625 -0.566406 2.703125 -0.546875 L 6.484375 0.890625 C 6.566406 0.921875 6.632812 0.921875 6.6875 0.890625 C 6.738281 0.867188 6.78125 0.820312 6.8125 0.75 L 6.96875 0.34375 C 6.988281 0.269531 7.035156 0.210938 7.109375 0.171875 C 7.191406 0.140625 7.269531 0.140625 7.34375 0.171875 C 7.425781 0.203125 7.476562 0.253906 7.5 0.328125 C 7.53125 0.398438 7.535156 0.472656 7.515625 0.546875 L 6.84375 2.328125 C 6.8125 2.398438 6.804688 2.460938 6.828125 2.515625 C 6.859375 2.578125 6.914062 2.625 7 2.65625 L 7.53125 2.84375 C 7.601562 2.875 7.671875 2.875 7.734375 2.84375 C 7.796875 2.820312 7.84375 2.773438 7.875 2.703125 L 8.59375 0.796875 C 8.625 0.710938 8.625 0.644531 8.59375 0.59375 C 8.5625 0.539062 8.507812 0.5 8.4375 0.46875 L 8.03125 0.328125 C 7.957031 0.296875 7.90625 0.238281 7.875 0.15625 C 7.851562 0.0820312 7.851562 0.0078125 7.875 -0.0625 L 8 -0.359375 C 8.007812 -0.390625 8.003906 -0.410156 7.984375 -0.421875 L 6.984375 -2.671875 C 6.972656 -2.679688 6.953125 -2.691406 6.921875 -2.703125 L 6.625 -2.8125 C 6.550781 -2.84375 6.5 -2.894531 6.46875 -2.96875 C 6.4375 -3.050781 6.4375 -3.128906 6.46875 -3.203125 L 6.625 -3.609375 C 6.644531 -3.679688 6.640625 -3.742188 6.609375 -3.796875 C 6.578125 -3.859375 6.53125 -3.898438 6.46875 -3.921875 L 5.921875 -4.140625 C 5.847656 -4.160156 5.78125 -4.15625 5.71875 -4.125 C 5.664062 -4.101562 5.628906 -4.054688 5.609375 -3.984375 L 5.453125 -3.578125 C 5.421875 -3.503906 5.367188 -3.445312 5.296875 -3.40625 C 5.222656 -3.375 5.148438 -3.375 5.078125 -3.40625 L 4.78125 -3.515625 C 4.757812 -3.523438 4.738281 -3.523438 4.71875 -3.515625 L 2.46875 -2.53125 C 2.457031 -2.507812 2.445312 -2.488281 2.4375 -2.46875 L 2.3125 -2.15625 C 2.289062 -2.082031 2.242188 -2.023438 2.171875 -1.984375 C 2.097656 -1.953125 2.019531 -1.953125 1.9375 -1.984375 L 1.546875 -2.125 C 1.472656 -2.15625 1.40625 -2.160156 1.34375 -2.140625 C 1.28125 -2.117188 1.234375 -2.066406 1.203125 -1.984375 L 0.484375 -0.078125 C 0.453125 -0.00390625 0.4375 0.03125 0.4375 0.03125 Z M 3.59375 -1.84375 C 3.59375 -1.84375 3.617188 -1.847656 3.671875 -1.859375 L 5.1875 -2.546875 L 5.3125 -2.890625 C 5.351562 -2.953125 5.40625 -3 5.46875 -3.03125 C 5.53125 -3.070312 5.597656 -3.078125 5.671875 -3.046875 L 5.921875 -2.953125 C 5.992188 -2.929688 6.046875 -2.882812 6.078125 -2.8125 C 6.117188 -2.738281 6.125 -2.664062 6.09375 -2.59375 L 5.96875 -2.25 L 6.65625 -0.734375 C 6.6875 -0.679688 6.695312 -0.625 6.6875 -0.5625 C 6.675781 -0.507812 6.648438 -0.460938 6.609375 -0.421875 C 6.566406 -0.378906 6.519531 -0.347656 6.46875 -0.328125 C 6.414062 -0.304688 6.359375 -0.304688 6.296875 -0.328125 L 3.6875 -1.328125 C 3.625 -1.347656 3.578125 -1.382812 3.546875 -1.4375 C 3.515625 -1.488281 3.5 -1.539062 3.5 -1.59375 C 3.5 -1.644531 3.515625 -1.695312 3.546875 -1.75 C 3.578125 -1.8125 3.59375 -1.84375 3.59375 -1.84375 Z M 3.59375 -1.84375 "/></g></g></g></svg>